<!DOCTYPE svg PUBLIC "-//W3C//DTD SVG 1.1//EN" "http://www.w3.org/Graphics/SVG/1.1/DTD/svg11.dtd">
<!-- Uploaded to: SVG Repo, www.svgrepo.com, Transformed by: SVG Repo Mixer Tools -->
<svg fill="#3B82F6" width="64px" height="64px" viewBox="0 0 24.00 24.00" xmlns="http://www.w3.org/2000/svg" stroke="#3B82F6" stroke-width="0.00024000000000000003" transform="matrix(-1, 0, 0, 1, 0, 0)rotate(0)">
<g id="SVGRepo_bgCarrier" stroke-width="0"/>
<g id="SVGRepo_tracerCarrier" stroke-linecap="round" stroke-linejoin="round" stroke="#000000" stroke-width="1.584"> <title/> <g data-name="Layer 2" id="Layer_2"> <path d="M8,7.29a6.22,6.22,0,0,0-4,5.83L5.12,22H16V18h4V2H8ZM14,20H6.88L6,13.06a4.25,4.25,0,0,1,.91-2.58A4.2,4.2,0,0,1,8,9.5v5.92L11.45,12a1.17,1.17,0,0,1,1.89,1.3L11.24,18H14ZM10,4h8V16H14.32l.85-1.92A3.17,3.17,0,0,0,10,10.55l0,0V4Z"/> </g> </g>
<g id="SVGRepo_iconCarrier"> <title/> <g data-name="Layer 2" id="Layer_2"> <path d="M8,7.29a6.22,6.22,0,0,0-4,5.83L5.12,22H16V18h4V2H8ZM14,20H6.88L6,13.06a4.25,4.25,0,0,1,.91-2.58A4.2,4.2,0,0,1,8,9.5v5.92L11.45,12a1.17,1.17,0,0,1,1.89,1.3L11.24,18H14ZM10,4h8V16H14.32l.85-1.92A3.17,3.17,0,0,0,10,10.55l0,0V4Z"/> </g> </g>
</svg>